<svg height="512" viewBox="0 0 64 64" width="512" xmlns="http://www.w3.org/2000/svg"><g id="Loader"><path d="m20 49a5.971 5.971 0 0 1 2 .349v-42.349a4 4 0 0 0 -4-4h-8a2.015 2.015 0 0 0 -2 2 2.006 2.006 0 0 0 2 2h7a1 1 0 0 1 1 1v41.349a5.971 5.971 0 0 1 2-.349z" fill="#d80027"/><path d="m25.651 57h28.349a2 2 0 0 0 0-4h-28.349a5.905 5.905 0 0 1 0 4z" fill="#d80027"/><path d="m26 55a6.024 6.024 0 1 1 -.35-2 6.049 6.049 0 0 1 .35 2z" fill="#58595b"/><circle cx="20" cy="55" fill="#f1f2f2" r="2"/><path d="m52 51v-20a2 2 0 0 0 -2-2h-20a2 2 0 0 0 -2 2v20a2 2 0 0 0 2 2h20a2 2 0 0 0 2-2z" fill="#ffb655"/><path d="m37 41 3-2 3 2v-12h-6z" fill="#8b5e3c"/><path d="m43 29h3a2 2 0 0 0 2-2v-12a2 2 0 0 0 -2-2h-12a2 2 0 0 0 -2 2v12a2 2 0 0 0 2 2z" fill="#ffc477"/><path d="m38 21 2-1 2 1v-8h-4z" fill="#8b5e3c"/><path d="m43 5h-6a1 1 0 0 0 -1 1v6a1 1 0 0 0 1 1h6a1 1 0 0 0 1-1v-6a1 1 0 0 0 -1-1z" fill="#ffcb86"/><path d="m43 5v5a1 1 0 0 1 -1 1h-6v1a1 1 0 0 0 1 1h6a1 1 0 0 0 1-1v-6a1 1 0 0 0 -1-1z" fill="#ffc477"/><path d="m46 13v9a4 4 0 0 1 -4 4h-10v1a2 2 0 0 0 2 2h12a2 2 0 0 0 2-2v-12a2 2 0 0 0 -2-2z" fill="#ffbe68"/><path d="m50 29v17a4 4 0 0 1 -4 4h-18v1a2 2 0 0 0 2 2h20a2 2 0 0 0 2-2v-20a2 2 0 0 0 -2-2z" fill="#ffa733"/><path d="m41 9-1-1-1 1v-4h2z" fill="#8b5e3c"/></g></svg>